
<svg width="1290" height="564" viewBox="0 0 1290 564" fill="none" xmlns="http://www.w3.org/2000/svg">
<rect width="1290" height="564" fill="black"/>
<path d="M183 151.689H202.5V128.075H221.5V106H260L260.5 151.689H241V218.94H299V151.689H318V128.075L337.5 127.561V173.764L357 173.25V425.311H337.5V447.385H318V471H221.5V447.385H202.5V425.311H183V310.318H202V288.757H241V425.824L298.5 425.311V264.629H183V151.689Z" fill="white"/>
<path d="M395 310.369H376V288.75H414.5V151.312H453V127.634H472.5V105.5H627V151.312H608V426.188H588.5V447.807H569L569.5 472H549.5L550 334.562H472.5V471.485L414.5 472V334.048L395 334.562V310.369Z" fill="white"/>
<path d="M472.5 299.045L550 298.53V161.093H472.5V299.045Z" fill="black"/>
<path d="M705 151.689H666V288.757H628V310.318H647V334.446H801.5V425.824L724.5 425.311V379.622H705L704.5 401.696H685.5V425.311H666.5V447.385H647V471H821V447.385H840.5V425.824H859.5V288.757L724.5 288.243L724 151.689H801.5V243.068H821V219.453H840.5V197.378H859.5V151.689H879V106H724V127.561L705 128.075V151.689Z" fill="white"/>
<path d="M879 289.257V311.33L917.07 310.816V472H975.178V310.816H1052.32V472H1071.86L1072.36 447.36H1091.39V426.314H1110.93V310.816H1130.47V289.257H1149V265.13H1110.93V128.073H1091.39V107.027H1072.36V152.199H1052.82V265.13H975.178V152.199H994.714V106H975.178V128.073H955.642V152.199H916.57L917.571 265.13H897.534V289.257H879Z" fill="white"/>
</svg>

